<svg xmlns="http://www.w3.org/2000/svg" width="284" height="40" fill="none" viewBox="0 0 284 40">
  <path fill="#F3F25B" d="M180.851.698c-20.196.625-40.38 1.673-60.53 3.144l-54.86.972c-20.065.358-40.13.711-60.19 1.068C3.33 5.916.324 7.341.026 9.493c-.327 2.374 2.61 2.771 4.263 2.745l39.114-.695a1510.74 1510.74 0 0 0-16.266 2.16c-1.878.26-4.5 1.14-5.099 3.194-.535 1.832 1.138 3.131 2.914 3.164l90.333 1.551c6.408.11 12.816.222 19.224.33a841.626 841.626 0 0 0-27.603 3.482 863.41 863.41 0 0 0-43 7.298c-1.54.301-3.726 1.65-3.96 3.38-.229 1.653 1.593 2.734 3.055 2.747 34.243.298 68.486.599 102.729.896 9.656.083 19.308.169 28.963.252 2.212.02 5.049-.612 6.163-2.784.996-1.945-.869-3.562-2.771-3.578l-98.89-.863c.919-.14 1.835-.281 2.754-.417a834.266 834.266 0 0 1 112.914-8.954c1.115-.013 2.242-.02 3.366-.027 12.77.219 25.537.44 38.307.658 2.209.037 5.056-.625 6.164-2.784 1.018-1.984-.886-3.501-2.771-3.578a852.452 852.452 0 0 0-39.117-.67c-17.072-.295-34.144-.586-51.216-.88l-90.333-1.551c-2.427-.043-4.858-.083-7.285-.126a1437.363 1437.363 0 0 1 47.371-4.249c32.963-.585 65.93-1.167 98.894-1.752 20.064-.357 40.129-.711 60.19-1.068 1.841-.033 4.546-1.296 5.098-3.194.543-1.855-1.144-3.099-2.913-3.165a1465.244 1465.244 0 0 0-99.767-.317Z"/>
</svg>
